HIERARCHY
ROOT Hips
{
	OFFSET 0.00000 0.00000 0.00000
	CHANNELS 6 Xposition Yposition Zposition Zrotation Yrotation Xrotation 
	JOINT LHipJoint
	{
		OFFSET 0 0 0
		CHANNELS 3 Zrotation Yrotation Xrotation
		JOINT LeftHip
		{
			OFFSET 1.77779 -1.88989 0.48267
			CHANNELS 3 Zrotation Yrotation Xrotation
			JOINT LeftKnee
			{
				OFFSET 2.53442 -6.96327 0.00000
				CHANNELS 3 Zrotation Yrotation Xrotation
				JOINT LeftAnkle
				{
					OFFSET 2.71068 -7.44755 0.00000
					CHANNELS 3 Zrotation Yrotation Xrotation
					JOINT LeftToe
					{
						OFFSET 0.17992 -0.49431 2.22524
						CHANNELS 3 Zrotation Yrotation Xrotation
						End Site
						{
							OFFSET 0.00000 -0.00000 1.14687
						}
					}
				}
			}
		}
	}
	JOINT RHipJoint
	{
		OFFSET 0 0 0
		CHANNELS 3 Zrotation Yrotation Xrotation
		JOINT RightHip
		{
			OFFSET -1.58469 -1.88989 0.48267
			CHANNELS 3 Zrotation Yrotation Xrotation
			JOINT RightKnee
			{
				OFFSET -2.60386 -7.15404 0.00000
				CHANNELS 3 Zrotation Yrotation Xrotation
				JOINT RightAnkle
				{
					OFFSET -2.73334 -7.50979 0.00000
					CHANNELS 3 Zrotation Yrotation Xrotation
					JOINT RightToe
					{
						OFFSET -0.25618 -0.70384 2.21822
						CHANNELS 3 Zrotation Yrotation Xrotation
						End Site
						{
							OFFSET -0.00000 -0.00000 1.16381
						}
					}
				}
			}
		}
	}
	JOINT lowerback
	{
		OFFSET 0 0 0
		CHANNELS 3 Zrotation Yrotation Xrotation
		JOINT Chest
		{
			OFFSET 0.03410 2.01612 -0.22230
			CHANNELS 3 Zrotation Yrotation Xrotation
			JOINT Chest2
			{
				OFFSET 0.03465 2.03012 0.00937
				CHANNELS 3 Zrotation Yrotation Xrotation
				JOINT lowerneck
				{
					OFFSET 0 0 0
					CHANNELS 3 Zrotation Yrotation Xrotation
					JOINT Neck
					{
						OFFSET -0.00219 1.70459 0.20857
						CHANNELS 3 Zrotation Yrotation Xrotation
						JOINT Head
						{
							OFFSET 0.02518 1.72339 -0.22179
							CHANNELS 3 Zrotation Yrotation Xrotation
							End Site
							{
								OFFSET 0.00282 1.74122 -0.09823
							}
						}
					}
				}
				JOINT LeftCollar
				{
					OFFSET 0 0 0
					CHANNELS 3 Zrotation Yrotation Xrotation
					JOINT LeftShoulder
					{
						OFFSET 3.36358 1.00547 -0.37661
CHANNELS 3 Zrotation Xrotation Yrotation
						JOINT LeftElbow
						{
OFFSET 0 -5.065070 0.000000
CHANNELS 3 Zrotation Xrotation Yrotation
							JOINT LeftWrist
							{
OFFSET 0 -3.601960 0.000000
CHANNELS 3 Zrotation Xrotation Yrotation
								JOINT lhand
								{
									OFFSET 0 0 0
CHANNELS 3 Zrotation Xrotation Yrotation
									JOINT LFingers
									{
OFFSET 0 -0.450350 0.000000
CHANNELS 3 Zrotation Xrotation Yrotation
										End Site
										{
OFFSET 0 -0.363080 0.000000
										}
									}
								}
								JOINT LThumb
								{
OFFSET 0 0.000000 0.000000
CHANNELS 3 Zrotation Xrotation Yrotation
									End Site
									{
OFFSET 0 -0.368620 0.368620
									}
								}
							}
						}
					}
				}
				JOINT RightCollar
				{
					OFFSET 0 0 0
					CHANNELS 3 Zrotation Yrotation Xrotation
					JOINT RightShoulder
					{
						OFFSET -3.50159 0.80383 -0.71526
CHANNELS 3 Zrotation Xrotation Yrotation
						JOINT RightElbow
						{
OFFSET 0 -5.363940 0.000000
CHANNELS 3 Zrotation Xrotation Yrotation
							JOINT RightWrist
							{
OFFSET 0 -3.580350 0.000000
CHANNELS 3 Zrotation Xrotation Yrotation
								JOINT rhand
								{
									OFFSET 0 0 0
CHANNELS 3 Zrotation Xrotation Yrotation
									JOINT RFingers
									{
OFFSET 0 -0.663750 0.000000
CHANNELS 3 Zrotation Xrotation Yrotation
										End Site
										{
OFFSET 0 -0.535130 0.000000
										}
									}
								}
								JOINT RThumb
								{
OFFSET 0 0.000000 0.000000
CHANNELS 3 Zrotation Xrotation Yrotation
									End Site
									{
OFFSET 0 -0.543300 0.543300
									}
								}
							}
						}
					}
				}
			}
		}
	}
}
MOTION
Frames: 5
Frame Time: 0.008333333333333333
-0.217200 18.122500 -30.370600 -5.399600 1.013400 6.507900 0.000000 0.000000 0.000000 -11.620800 -9.008800 -37.904600 15.943000 19.600700 78.061700 -0.011000 -4.008000 -2.319200 0.433700 -4.225900 -11.713100 0.000000 0.000000 0.000000 34.367000 3.643500 4.462800 -3.264600 -11.111500 32.657000 0.119200 -6.688600 0.455600 -0.521200 4.626800 -12.847200 6.982500 1.223900 14.086700 2.793500 3.079600 -1.191400 -1.591900 1.214100 -9.021600 -1.906200 -5.123000 -19.959500 2.224200 -6.692900 9.778200 0.279600 -3.116000 6.333100 -0.000000 -0.000000 0.000000 6.452400 30.646600 -43.857200 107.084100 -58.867900 74.739000 30.678300 -28.253500 1.844200 0.000000 0.000000 0.000000 -7.125000 0.000000 0.000000 3.161900 27.831200 1.321800 -0.000000 -0.000000 0.000000 -2.329600 4.495600 46.557200 -145.935200 -44.132700 -105.841800 -20.100500 -30.696300 -37.695500 0.000000 0.000000 0.000000 7.125000 0.000000 -0.000000 7.438400 -9.176000 8.596500
-0.211396 18.151166 -30.226751 -5.326471 1.182164 6.402792 0.000000 0.000000 0.000000 -11.815875 -9.262740 -37.718012 15.535053 19.503505 76.835533 -0.010151 -3.798332 -2.186220 0.378750 -3.919529 -10.854304 0.000000 0.000000 0.000000 34.172171 3.221453 4.911158 -3.193305 -10.999356 32.280211 0.074025 -6.886933 2.019706 -0.533986 4.681476 -13.002439 7.002788 1.208705 14.043195 2.746244 3.055589 -1.208101 -1.647808 1.200411 -9.013058 -1.886515 -5.147942 -19.917528 2.203885 -6.732134 9.868687 0.265199 -3.135357 6.355003 0.000000 0.000000 0.000000 6.413604 30.984402 -43.735090 107.445119 -58.816701 75.047725 30.793538 -28.291748 1.719735 0.000000 0.000000 0.000000 -7.125000 0.000000 0.000000 3.256987 27.973406 1.349891 0.000000 0.000000 0.000000 -2.463949 4.533356 46.745102 -145.804219 -44.228663 -105.750299 -20.471759 -30.740325 -38.571380 0.000000 0.000000 0.000000 7.125000 0.000000 0.000000 7.410747 -10.127611 8.660512
-0.205591 18.179832 -30.082902 -5.253342 1.350928 6.297684 0.000000 0.000000 0.000000 -12.010950 -9.516680 -37.531425 15.127107 19.406309 75.609366 -0.009303 -3.588664 -2.053241 0.323801 -3.613159 -9.995508 0.000000 0.000000 0.000000 33.977343 2.799407 5.359516 -3.122010 -10.887212 31.903421 0.028849 -7.085266 3.583811 -0.546772 4.736152 -13.157677 7.023076 1.193509 13.999690 2.698988 3.031577 -1.224802 -1.703716 1.186721 -9.004516 -1.866829 -5.172884 -19.875556 2.183570 -6.771368 9.959175 0.250797 -3.154714 6.376906 0.000000 0.000000 0.000000 6.374808 31.322203 -43.612980 107.806138 -58.765503 75.356450 30.908776 -28.329997 1.595270 0.000000 0.000000 0.000000 -7.125000 0.000000 0.000000 3.352074 28.115613 1.377982 0.000000 0.000000 0.000000 -2.598297 4.571111 46.933004 -145.673238 -44.324627 -105.658799 -20.843018 -30.784351 -39.447261 0.000000 0.000000 0.000000 7.125000 0.000000 0.000000 7.383094 -11.079221 8.724524
-0.199787 18.208497 -29.939053 -5.180212 1.519692 6.192576 0.000000 0.000000 0.000000 -12.206025 -9.770620 -37.344837 14.719160 19.309114 74.383199 -0.008454 -3.378996 -1.920261 0.268851 -3.306788 -9.136712 0.000000 0.000000 0.000000 33.782514 2.377360 5.807874 -3.050716 -10.775067 31.526632 -0.016326 -7.283600 5.147917 -0.559558 4.790827 -13.312916 7.043363 1.178314 13.956184 2.651732 3.007566 -1.241504 -1.759624 1.173032 -8.995973 -1.847144 -5.197827 -19.833584 2.163254 -6.810602 10.049662 0.236396 -3.174071 6.398810 0.000000 0.000000 0.000000 6.336012 31.660005 -43.490869 108.167157 -58.714304 75.665176 31.024014 -28.368245 1.470806 0.000000 0.000000 0.000000 -7.125000 0.000000 0.000000 3.447161 28.257819 1.406072 0.000000 0.000000 0.000000 -2.732646 4.608867 47.120906 -145.542257 -44.420590 -105.567298 -21.214276 -30.828376 -40.323141 0.000000 0.000000 0.000000 7.125000 0.000000 0.000000 7.355442 -12.030832 8.788536
-0.194087 18.236316 -29.795413 -5.109120 1.699037 6.080465 0.000000 0.000000 0.000000 -12.399607 -10.023789 -37.129121 14.308407 19.199291 73.139361 -0.007672 -3.207277 -1.818446 0.223798 -3.037720 -8.384218 0.000000 0.000000 0.000000 33.594746 1.960004 6.251331 -2.985825 -10.671544 31.180398 -0.073367 -7.519283 6.640625 -0.546137 4.723358 -13.122967 7.070179 1.154935 13.903182 2.606331 2.972364 -1.249136 -1.814532 1.154394 -8.972853 -1.837364 -5.219638 -19.768165 2.155443 -6.844726 10.118872 0.228998 -3.190763 6.410769 0.000000 0.000000 0.000000 6.290650 31.981192 -43.357236 108.510657 -58.664390 75.958742 31.111514 -28.408854 1.355904 0.000000 0.000000 0.000000 -7.125000 0.000000 0.000000 3.520429 28.389672 1.425609 0.000000 0.000000 0.000000 -2.867527 4.656938 47.305686 -145.451281 -44.487206 -105.503737 -21.352806 -30.646609 -40.785006 0.000000 0.000000 0.000000 7.125000 0.000000 0.000000 7.368603 -12.519601 8.854841
